<svg width="126" height="52" viewBox="0 0 126 52" fill="none" xmlns="http://www.w3.org/2000/svg">
<g clip-path="url(#clip0_2411_4330)">
<mask id="mask0_2411_4330" style="mask-type:luminance" maskUnits="userSpaceOnUse" x="6" y="7" width="38" height="35">
<path d="M35.2424 7.5293H35.2434C36.6019 7.56676 39.5967 7.94044 41.4749 10.335L41.6536 10.5732C42.2571 11.4182 42.577 12.3307 42.7366 13.168L42.7961 13.5225C42.8972 14.2319 42.8882 14.8641 42.8538 15.3193C42.8366 15.5466 42.8131 15.7295 42.7942 15.8545C42.7847 15.9168 42.7757 15.9648 42.7698 15.9971C42.7687 16.0028 42.7668 16.0079 42.7659 16.0127C42.0668 17.3379 38.8043 23.663 29.8186 27.4795L28.9211 27.8447C26.3906 28.8296 23.0748 29.7722 20.385 30.4697C19.0419 30.8181 17.8576 31.1052 17.009 31.3047C16.5847 31.4044 16.2441 31.4822 16.01 31.5352C15.8931 31.5616 15.8026 31.5821 15.7415 31.5957C15.711 31.6025 15.6877 31.6079 15.6721 31.6113C15.6644 31.613 15.6584 31.6144 15.6545 31.6152C15.653 31.6156 15.6515 31.615 15.6506 31.6152L15.6497 31.6162H15.6487C14.7764 31.7732 13.8766 32.0743 13.1995 32.334C12.8582 32.4649 12.5708 32.5861 12.3684 32.6748C12.2672 32.7192 12.1872 32.7559 12.1321 32.7812C12.1046 32.7939 12.0832 32.8037 12.0686 32.8105C12.0638 32.8128 12.0592 32.8139 12.0559 32.8154V32.8164C12.0527 32.8177 12.048 32.8198 12.0422 32.8223C12.0307 32.8271 12.0138 32.8343 11.9924 32.8438C11.9498 32.8626 11.8881 32.8907 11.8088 32.9287C11.6497 33.005 11.4194 33.1215 11.1321 33.2842C10.6293 33.5689 9.9504 33.9959 9.16431 34.5967L8.82056 34.8643C7.63387 35.8125 6.95878 36.9002 6.58032 37.9111L6.59204 37.6406C6.63929 36.7158 6.74321 35.886 6.85474 35.208L6.96704 34.583C7.04203 34.1976 7.113 33.891 7.16528 33.6816C7.19143 33.577 7.21306 33.4961 7.22778 33.4424C7.23009 33.434 7.23167 33.426 7.23364 33.4189C7.27041 33.3741 7.34798 33.2803 7.46997 33.1475C7.64337 32.9586 7.90044 32.6948 8.24048 32.3857C8.83572 31.8448 9.68482 31.1661 10.7864 30.5078L11.2737 30.2275C12.603 29.4922 13.9728 29.0922 14.6428 28.9316L14.885 28.877C15.9036 28.6653 21.1356 27.4052 25.8733 24.5547L26.3303 24.2734C28.3582 23.0004 30.088 21.3808 31.4768 19.6475L31.8499 19.1816H31.8362C32.9501 17.7142 33.7758 16.2422 34.3782 14.7236L34.6282 14.0566C35.321 12.0853 35.3718 10.365 35.2483 9.13477C35.1866 8.52007 35.0812 8.0275 34.9905 7.68652C34.9749 7.62809 34.9561 7.5748 34.9417 7.52539C34.9474 7.52536 34.9533 7.52541 34.9592 7.52539L35.2424 7.5293Z" fill="white" stroke="white" stroke-width="0.572727"/>
</mask>
<g mask="url(#mask0_2411_4330)">
<mask id="mask1_2411_4330" style="mask-type:luminance" maskUnits="userSpaceOnUse" x="5" y="6" width="39" height="37">
<path d="M43.6985 6.71094V41.7832H5.74829V6.71094H43.6985Z" fill="white" stroke="white" stroke-width="0.572727"/>
</mask>
<g mask="url(#mask1_2411_4330)">
<mask id="mask2_2411_4330" style="mask-type:luminance" maskUnits="userSpaceOnUse" x="5" y="6" width="39" height="37">
<path d="M43.6985 6.71094V41.7832H5.74829V6.71094H43.6985Z" fill="white" stroke="white" stroke-width="0.572727"/>
</mask>
<g mask="url(#mask2_2411_4330)">
<rect x="5.39673" y="6.35449" width="38.6434" height="35.7441" fill="white"/>
</g>
</g>
</g>
<path opacity="0.2" d="M35.0425 7.5293C35.0638 7.59428 35.0858 7.65532 35.103 7.71289L35.1753 7.98926L35.1763 7.99414C35.4377 9.16445 35.6789 11.3934 34.729 14.0938L34.6978 14.1816C34.0831 15.9008 33.2227 17.4987 32.0659 19.0586L31.8716 19.3213L31.8745 19.3223L31.562 19.7129V19.7139C30.1564 21.4688 28.539 22.9525 26.7495 24.1309L26.3892 24.3633C21.7878 27.2537 16.6348 28.5824 15.2544 28.9033L14.9067 28.9805C14.721 29.0182 13.209 29.3476 11.6411 30.1533L11.3267 30.3203C9.04311 31.5852 7.72088 33.0168 7.38232 33.4082L7.18408 33.6113C7.20193 33.5416 7.21693 33.4858 7.22803 33.4453C7.23033 33.4369 7.23192 33.429 7.23389 33.4219C7.27067 33.377 7.34828 33.2832 7.47021 33.1504C7.64361 32.9616 7.90072 32.6977 8.24072 32.3887C8.83597 31.8477 9.68506 31.169 10.7866 30.5107L11.2739 30.2305C12.6027 29.4954 13.9718 29.0952 14.6421 28.9346L14.8843 28.8799H14.8853C15.9041 28.6681 21.136 27.4081 25.8735 24.5576L26.3306 24.2764C28.3584 23.0034 30.0882 21.3837 31.4771 19.6504L31.8501 19.1846H31.8364C32.9503 17.7172 33.7761 16.2451 34.3784 14.7266L34.6284 14.0596C35.3212 12.0882 35.372 10.3679 35.2485 9.1377C35.1868 8.52302 35.0814 8.03043 34.9907 7.68945C34.9752 7.63103 34.9563 7.57772 34.9419 7.52832C34.9736 7.52813 35.0071 7.52906 35.0425 7.5293Z" fill="white" stroke="white" stroke-width="0.572727"/>
<path opacity="0.2" d="M42.8289 15.6113C42.8179 15.7078 42.8076 15.7902 42.7976 15.8564C42.7881 15.9189 42.7801 15.9677 42.7742 16C42.774 16.001 42.7734 16.0019 42.7732 16.0029C42.087 17.3027 38.8311 23.6539 29.8191 27.4814L28.9216 27.8467C26.3911 28.8316 23.0753 29.7741 20.3855 30.4717C19.0425 30.82 17.8581 31.1062 17.0095 31.3057C16.5852 31.4054 16.2445 31.4832 16.0105 31.5361C15.8935 31.5626 15.8031 31.5831 15.7419 31.5967C15.7114 31.6035 15.6882 31.6089 15.6726 31.6123C15.6649 31.614 15.6589 31.6144 15.655 31.6152C14.7809 31.772 13.8787 32.0756 13.2 32.3359C12.8588 32.4668 12.5713 32.5881 12.3689 32.6768C12.2678 32.7211 12.1876 32.7569 12.1326 32.7822C12.1051 32.7949 12.0836 32.8047 12.0691 32.8115C12.062 32.8149 12.0563 32.8175 12.0525 32.8193C12.0506 32.8202 12.0487 32.8208 12.0476 32.8213H12.0466C12.0454 32.8218 12.0441 32.8226 12.0427 32.8232C12.0312 32.8281 12.0143 32.8353 11.9929 32.8447C11.9503 32.8635 11.8886 32.8917 11.8093 32.9297C11.6502 33.006 11.4199 33.1225 11.1326 33.2852C10.6298 33.5699 9.95091 33.9968 9.16479 34.5977L8.82104 34.8662C7.6346 35.8147 6.95921 36.9021 6.58081 37.9131C6.58375 37.8367 6.58687 37.7608 6.59058 37.6855C6.74402 37.2336 6.93228 36.8753 7.08374 36.6299C7.16103 36.5047 7.22817 36.4088 7.27515 36.3457C7.29863 36.3141 7.31782 36.2903 7.32983 36.2754C7.33564 36.2682 7.33989 36.2629 7.34253 36.2598C7.3438 36.2582 7.34403 36.2564 7.34448 36.2559L7.34546 36.2568L7.35327 36.2471L7.36011 36.2373C7.72324 35.7369 8.1804 35.2447 8.75562 34.7842L8.75464 34.7832C10.5198 33.3743 11.8345 32.7977 12.0056 32.7256V32.7266L12.0164 32.7207C12.2064 32.6312 13.7564 31.9135 15.3162 31.5771L15.6277 31.5156L15.6384 31.5137C15.9802 31.4384 22.998 29.8785 27.9265 28.1064L28.8826 27.75C32.6624 26.2778 35.911 24.1978 38.5437 21.5596L39.0613 21.0244H39.0623C41.2033 18.7455 42.2495 16.768 42.6472 16.0156L42.6462 16.0146C42.7124 15.8942 42.7717 15.7572 42.8289 15.6113Z" fill="white" stroke="white" stroke-width="0.572727"/>
<mask id="mask3_2411_4330" style="mask-type:luminance" maskUnits="userSpaceOnUse" x="0" y="4" width="21" height="45">
<path d="M15.6355 9.33691L15.2683 9.77441C12.5319 13.1033 10.0837 17.7146 10.0134 23.583L10.0144 24.1543C10.019 24.5204 10.0339 24.8905 10.0583 25.2646C9.40916 26.3428 8.79178 27.5596 8.2019 28.8828L7.94507 29.4707C7.01998 31.6255 5.52519 36.1892 6.17944 40.9902L6.24976 41.4551C6.69244 44.1328 8.33508 46.9131 11.2498 48.3193L11.2644 48.3271L11.281 48.332V48.333H11.283C11.284 48.3334 11.2852 48.3344 11.2869 48.335C11.2909 48.3364 11.2976 48.3382 11.3054 48.3408L11.6189 48.4453C11.6294 48.4487 11.6403 48.4515 11.6511 48.4551L11.4128 48.4258C9.08357 48.107 6.87948 47.2293 5.23608 45.8496L4.91479 45.5664L4.54956 45.2148C1.00465 41.6445 0.63148 36.5039 1.52808 31.7764L1.62183 31.3047C1.88225 30.0518 2.26325 28.7184 2.7644 27.3379L2.98706 26.7441V26.7432C4.58092 22.5774 7.23454 18.0264 10.9187 13.9053L11.6697 13.0869C12.9968 11.6759 14.4087 10.3217 15.8835 9.05176C15.8007 9.14567 15.718 9.24072 15.6355 9.33691Z" fill="white" stroke="white" stroke-width="0.572727"/>
</mask>
<g mask="url(#mask3_2411_4330)">
<mask id="mask4_2411_4330" style="mask-type:luminance" maskUnits="userSpaceOnUse" x="0" y="4" width="22" height="46">
<path d="M21.5129 4.30957V49.3809H0.286377V4.30957H21.5129Z" fill="white" stroke="white" stroke-width="0.572727"/>
</mask>
<g mask="url(#mask4_2411_4330)">
<mask id="mask5_2411_4330" style="mask-type:luminance" maskUnits="userSpaceOnUse" x="0" y="4" width="22" height="46">
<path d="M21.5129 4.30957V49.3809H0.286377V4.30957H21.5129Z" fill="white" stroke="white" stroke-width="0.572727"/>
</mask>
<g mask="url(#mask5_2411_4330)">
<rect x="-0.0227051" y="4.00391" width="21.8351" height="45.6991" fill="white"/>
</g>
</g>
</g>
<path opacity="0.2" d="M15.2947 9.74707L12.7712 12.0967L12.7634 12.1045C12.4197 12.4508 12.0807 12.8021 11.7468 13.1582C8.23447 16.89 5.31287 21.3736 3.44507 25.8789L3.08569 26.7803C2.5618 28.1472 2.14513 29.4883 1.84741 30.7764L1.72729 31.3252C0.172251 38.7826 2.43767 43.0082 4.76147 45.2773L4.98608 45.4912C5.76396 46.2086 6.70501 46.8109 7.75073 47.2803V47.2812L8.96069 47.8652C7.56539 47.4081 6.28485 46.7328 5.23413 45.8506L4.91382 45.5684C1.03152 41.9879 0.601597 36.6615 1.52808 31.7764L1.62183 31.3047C1.88225 30.0518 2.26325 28.7184 2.7644 27.3379L2.98706 26.7441V26.7432C4.58092 22.5774 7.23455 18.0264 10.9187 13.9053L11.6697 13.0869C13.4266 11.219 15.3313 9.44965 17.3347 7.84473L15.2947 9.74707Z" fill="white" stroke="white" stroke-width="0.572727"/>
<path opacity="0.28" d="M11.3741 48.0625L11.2814 48.333L11.2823 48.334C11.2834 48.3343 11.2853 48.3343 11.2872 48.335C11.2913 48.3363 11.2971 48.3392 11.3048 48.3418C11.3203 48.3471 11.3431 48.3545 11.3722 48.3643C11.4306 48.3839 11.5156 48.4124 11.6193 48.4463C11.6335 48.4509 11.6483 48.4551 11.6632 48.46C11.5954 48.4519 11.5277 48.4436 11.4601 48.4346C11.3322 48.3689 11.2048 48.3017 11.0782 48.2334C11.1352 48.2624 11.1922 48.2924 11.2501 48.3203L11.2648 48.3281L11.2804 48.333L11.3741 48.0625ZM10.0587 25.2646C9.40936 26.343 8.79228 27.5602 8.20227 28.8838L7.94446 29.4717C7.01934 31.6266 5.52549 36.1902 6.17981 40.9912L6.25012 41.4561C6.64727 43.8583 8.01008 46.3426 10.3907 47.8438C9.7512 47.4608 9.16572 47.0479 8.71301 46.6182H8.71204C7.42783 45.3966 6.58475 43.7047 6.21204 41.8486L6.14368 41.4756C5.32944 36.5441 6.83099 31.9211 7.68469 29.8193L7.84583 29.4326C8.52101 27.8609 9.21489 26.4795 9.90442 25.3164L9.90344 25.3154L10.049 25.0859C10.0523 25.1454 10.0548 25.205 10.0587 25.2646Z" fill="white" stroke="white" stroke-width="0.572727"/>
<mask id="path-13-inside-1_2411_4330" fill="white">
<path d="M14.4773 48.4478C14.4596 48.4478 14.4403 48.4446 14.4226 48.443L14.4274 48.4141L14.4789 48.4462L14.4773 48.4478Z"/>
</mask>
<path d="M14.4773 48.4478C14.4596 48.4478 14.4403 48.4446 14.4226 48.443L14.4274 48.4141L14.4789 48.4462L14.4773 48.4478Z" fill="white"/>
<path d="M14.4773 48.4478V49.0205H14.7145L14.8822 48.8529L14.4773 48.4478ZM14.4226 48.443L13.8577 48.3487L13.756 48.9576L14.3709 49.0134L14.4226 48.443ZM14.4274 48.4141L14.7306 47.9281L14.0036 47.4747L13.8625 48.3197L14.4274 48.4141ZM14.4789 48.4462L14.8838 48.8513L15.3936 48.3417L14.7821 47.9602L14.4789 48.4462ZM14.4773 48.4478V47.8751C14.4898 47.8751 14.4994 47.8756 14.5045 47.876C14.5096 47.8764 14.5127 47.8767 14.5117 47.8766C14.5114 47.8766 14.5106 47.8765 14.5088 47.8763C14.5079 47.8762 14.507 47.8761 14.5057 47.8759C14.5046 47.8758 14.5032 47.8756 14.5017 47.8754C14.4961 47.8748 14.4859 47.8736 14.4744 47.8726L14.4226 48.443L14.3709 49.0134C14.3681 49.0131 14.367 49.013 14.3706 49.0134C14.3721 49.0135 14.3811 49.0146 14.3882 49.0154C14.4029 49.017 14.4368 49.0205 14.4773 49.0205V48.4478ZM14.4226 48.443L14.9875 48.5373L14.9923 48.5084L14.4274 48.4141L13.8625 48.3197L13.8577 48.3487L14.4226 48.443ZM14.4274 48.4141L14.1243 48.9L14.1758 48.9321L14.4789 48.4462L14.7821 47.9602L14.7306 47.9281L14.4274 48.4141ZM14.4789 48.4462L14.074 48.0411L14.0724 48.0427L14.4773 48.4478L14.8822 48.8529L14.8838 48.8513L14.4789 48.4462Z" fill="white" mask="url(#path-13-inside-1_2411_4330)"/>
<path d="M14.4773 48.4478C14.4596 48.4478 14.4403 48.4446 14.4226 48.443L14.4274 48.4141L14.4789 48.4462L14.4773 48.4478Z" fill="white" stroke="white" stroke-width="0.572727" stroke-miterlimit="10"/>
<mask id="mask6_2411_4330" style="mask-type:luminance" maskUnits="userSpaceOnUse" x="12" y="31" width="7" height="15">
<path d="M15.629 32.4385C15.7079 32.6099 15.8198 32.845 15.9777 33.1641L16.6027 34.3965L16.6036 34.3975C16.7064 34.5944 16.8196 34.8121 16.9425 35.0459V35.0449C16.9463 35.0523 16.9508 35.0586 16.9542 35.0645V35.0654C16.986 35.1245 17.0195 35.1917 17.0538 35.2666L17.1603 35.5146V35.5156L17.2697 35.7969L17.2706 35.8008L17.3029 35.8936L17.3048 35.8994C17.394 36.1581 17.4805 36.4496 17.5558 36.7656L17.6271 37.0889C17.6274 37.0905 17.6277 37.0921 17.6281 37.0938V37.0947C17.6454 37.188 17.6617 37.2669 17.6779 37.3564V37.3574C17.6819 37.3823 17.6855 37.4079 17.6896 37.4336L17.7023 37.5107L17.7394 37.7793L17.7404 37.7803L17.7628 37.9824C17.7667 38.0124 17.7693 38.044 17.7726 38.083V38.084L17.7736 38.0908L17.7843 38.2178C17.8652 39.3261 17.7381 40.5419 17.1935 41.6631C16.8138 42.4447 16.2254 43.1889 15.3478 43.8252C15.9901 42.8423 16.1325 41.7486 15.8595 40.4863L15.795 40.2129C15.5691 39.3358 15.1588 38.3373 14.6056 37.2236L14.3595 36.7393C14.2231 36.4768 14.0796 36.2049 13.9279 35.9268H13.9269L13.504 35.1592L13.255 34.7012C13.0224 34.2622 12.8383 33.8813 12.7042 33.5898C12.6379 33.4457 12.5848 33.3231 12.5431 33.2266L12.8927 33.0771C13.353 32.8855 14.0342 32.626 14.7814 32.415L15.1056 32.3281C15.2473 32.2917 15.3917 32.2586 15.5363 32.2275C15.561 32.2843 15.5903 32.3543 15.629 32.4385Z" fill="white" stroke="white" stroke-width="0.572727"/>
</mask>
<g mask="url(#mask6_2411_4330)">
<mask id="mask7_2411_4330" style="mask-type:luminance" maskUnits="userSpaceOnUse" x="11" y="31" width="8" height="15">
<path d="M18.6241 31.3652V45.6309H11.6388V31.3652H18.6241Z" fill="white" stroke="white" stroke-width="0.572727"/>
</mask>
<g mask="url(#mask7_2411_4330)">
<mask id="mask8_2411_4330" style="mask-type:luminance" maskUnits="userSpaceOnUse" x="11" y="31" width="8" height="15">
<path d="M18.6241 31.3652V45.6309H11.6388V31.3652H18.6241Z" fill="white" stroke="white" stroke-width="0.572727"/>
</mask>
<g mask="url(#mask8_2411_4330)">
<rect x="11.2872" y="31.0479" width="7.69725" height="14.8934" fill="white"/>
</g>
</g>
</g>
<path opacity="0.2" d="M12.8038 33.5518V33.5527C12.9371 33.8436 13.1203 34.2222 13.3507 34.6572L13.5968 35.1094V35.1104C13.7434 35.3721 13.8848 35.629 14.0216 35.8809V35.8799L14.4523 36.6934L14.4532 36.6943C15.1011 37.943 15.5714 38.9572 15.8077 39.8174L15.8947 40.1768C15.9834 40.6069 16.0053 41.0028 15.9806 41.3662C15.9639 41.0824 15.9249 40.7896 15.8595 40.4873L15.795 40.2139C15.5691 39.3369 15.1586 38.3391 14.6056 37.2256L14.3595 36.7412V36.7402L13.9279 35.9287L13.504 35.1602C13.1509 34.5278 12.8831 33.9805 12.7042 33.5918C12.638 33.4478 12.5848 33.325 12.5431 33.2285C12.5723 33.2156 12.604 33.2021 12.6378 33.1875L12.8038 33.5518Z" fill="white" stroke="white" stroke-width="0.572727"/>
<mask id="mask9_2411_4330" style="mask-type:luminance" maskUnits="userSpaceOnUse" x="10" y="0" width="35" height="30">
<path d="M34.3752 0.491211C37.9502 0.547371 40.9373 1.82166 42.7542 4.15332L42.926 4.38184C44.6576 6.76963 44.6684 9.59517 44.2122 11.8838C44.0113 12.8914 43.7187 13.7847 43.4534 14.4775C43.428 12.6508 42.8437 10.5206 40.9075 8.9248L40.6897 8.75098C38.5998 7.15321 35.7821 6.5903 31.9866 7.25586L31.2141 7.40527C28.0153 8.08247 23.8126 10.4119 21.051 13.3701L20.7883 13.6582C14.8798 20.3021 14.0627 24.7487 14.1985 27.0166V27.0176C14.2043 27.4595 14.2683 27.9416 14.3596 28.4209L14.0715 28.4971C13.3903 28.6904 12.7566 28.9199 12.1731 29.1689L11.6067 29.4238C11.5118 29.4685 11.4199 29.5161 11.3284 29.5615C9.50099 22.3702 11.3038 16.6692 14.0071 12.4727C16.5863 8.46886 19.9851 5.83374 21.8342 4.60059L22.1829 4.37305C26.3892 1.67586 30.6855 0.433314 34.3752 0.491211Z" fill="white" stroke="white" stroke-width="0.572727"/>
</mask>
<g mask="url(#mask9_2411_4330)">
<mask id="mask10_2411_4330" style="mask-type:luminance" maskUnits="userSpaceOnUse" x="10" y="0" width="35" height="31">
<path d="M44.6681 0.286133V29.8955H10.3741V0.286133H44.6681Z" fill="white" stroke="white" stroke-width="0.572727"/>
</mask>
<g mask="url(#mask10_2411_4330)">
<mask id="mask11_2411_4330" style="mask-type:luminance" maskUnits="userSpaceOnUse" x="10" y="0" width="35" height="31">
<path d="M44.6681 0.286133V29.8955H10.3741V0.286133H44.6681Z" fill="white" stroke="white" stroke-width="0.572727"/>
</mask>
<g mask="url(#mask11_2411_4330)">
<rect x="10.0308" y="-0.0712891" width="34.9518" height="30.2571" fill="white"/>
</g>
</g>
</g>
<path opacity="0.2" d="M34.9189 6.87695C37.248 6.87695 39.2066 7.48629 40.7568 8.66797V8.66895L40.7646 8.67383C40.7654 8.67433 40.7674 8.67609 40.7773 8.68457L40.7832 8.68945L40.7891 8.69336C41.5975 9.31772 42.2176 10.1244 42.625 11.0264C42.2326 10.2771 41.6778 9.55918 40.9092 8.92578L40.6904 8.75195C38.6006 7.1545 35.7847 6.5913 31.9883 7.25684L31.2158 7.40625C28.0171 8.0834 23.813 10.4129 21.0527 13.3711L20.79 13.6592C14.8683 20.3162 14.0599 24.7696 14.2002 27.0312V27.0303C14.207 27.47 14.2709 27.9471 14.3613 28.4219C14.3564 28.4232 14.3516 28.4245 14.3467 28.4258L14.2363 28.0498C13.8533 26.3919 13.6774 21.8082 20.0684 14.3252L20.709 13.5908C23.2507 10.7329 27.3868 8.21437 30.8594 7.37891L31.1934 7.30371C32.5339 7.01967 33.7888 6.87697 34.9189 6.87695Z" fill="white" stroke="white" stroke-width="0.572727"/>
<path opacity="0.2" d="M34.3743 0.491211C37.9489 0.547233 40.9354 1.82105 42.7522 4.15234L42.925 4.38086C44.6574 6.76853 44.6675 9.59427 44.2112 11.8828C44.1065 12.4077 43.976 12.9016 43.8391 13.3525C43.9506 12.7337 44.0619 12.1068 44.1506 11.582H44.1536L44.1936 11.3418C44.5329 9.2775 44.4338 6.79284 42.9827 4.64941L42.8381 4.44336C41.0264 1.94502 37.9157 0.59375 34.1272 0.59375C30.5753 0.593774 26.6437 1.8059 22.9709 4.00684L22.2405 4.45996C20.7775 5.39706 17.1533 7.98023 14.3645 12.1211L14.0969 12.5273C10.8584 17.5542 9.92394 23.1142 11.3108 29.0518V29.0527L11.4045 29.5234C11.3791 29.5359 11.3536 29.548 11.3284 29.5605C9.50112 22.3694 11.3032 16.6689 14.0061 12.4727C16.585 8.46891 19.9841 5.83443 21.8333 4.60059L22.1809 4.37207C26.3873 1.6756 30.6844 0.433447 34.3743 0.491211Z" fill="white" stroke="white" stroke-width="0.572727"/>
<path opacity="0.2" d="M15.6306 32.4365C15.7095 32.608 15.8214 32.843 15.9792 33.1621L16.6052 34.3945V34.3955C16.708 34.5925 16.8212 34.8101 16.9441 35.0439V35.043C16.9479 35.0503 16.9524 35.0566 16.9558 35.0625V35.0635C16.9876 35.1226 17.0211 35.1898 17.0554 35.2646L17.1619 35.5127V35.5137L17.2712 35.7949L17.2722 35.7988L17.3044 35.8916L17.3064 35.8975C17.3956 36.1562 17.4821 36.4476 17.5574 36.7637L17.6287 37.0869C17.629 37.0885 17.6293 37.0901 17.6296 37.0918V37.0928C17.647 37.1861 17.6633 37.2649 17.6794 37.3545V37.3555C17.6835 37.3803 17.6871 37.4059 17.6912 37.4316L17.7039 37.5088L17.7419 37.7773V37.7783L17.7644 37.9805L17.7751 38.082V38.0889L17.7859 38.2158C17.8668 39.3241 17.7397 40.54 17.1951 41.6611C17.1042 41.8482 16.9993 42.0319 16.8835 42.2139C17.0028 41.9724 17.1067 41.7313 17.1941 41.4922C17.7069 40.0893 17.7127 38.782 17.6755 38.2422V38.2168L17.6746 38.2021C17.6734 38.19 17.6719 38.1769 17.6707 38.1602C17.6699 38.1501 17.6688 38.1384 17.6677 38.126V38.0938L17.6638 38.0723C17.6607 38.0512 17.6586 38.0304 17.656 38.0059V37.9844L17.6541 37.9678C17.6477 37.9126 17.6403 37.8505 17.6316 37.7881H17.6326L17.5935 37.5156L17.572 37.3809L17.571 37.376L17.5251 37.127L17.5232 37.1123L17.5193 37.0986V37.0967L17.5173 37.0869L17.4529 36.792C17.4066 36.5968 17.3546 36.4039 17.2966 36.2148L17.2058 35.9336L17.2048 35.9316L17.1697 35.835L16.8982 35.9248L17.1697 35.834L17.1677 35.8291L17.0623 35.5508C16.9947 35.3857 16.9284 35.2394 16.864 35.1162L16.8435 35.0771L16.8416 35.0752C16.8359 35.0645 16.8288 35.0518 16.821 35.0371C16.796 34.9897 16.7619 34.9241 16.7244 34.8525C16.6492 34.7092 16.5618 34.5406 16.5095 34.4404H16.5085C16.2679 33.9755 16.076 33.5965 15.9226 33.2881L15.5691 32.5576L15.4343 32.2471C15.4687 32.2394 15.5034 32.233 15.5378 32.2256C15.5626 32.2824 15.5919 32.3524 15.6306 32.4365Z" fill="white" stroke="white" stroke-width="0.572727"/>
<mask id="mask12_2411_4330" style="mask-type:luminance" maskUnits="userSpaceOnUse" x="7" y="34" width="15" height="15">
<path d="M18.2747 37.4082C18.5344 37.8405 18.7958 38.2631 19.0481 38.6533V38.6523C20.1025 40.2863 20.8522 41.71 20.9524 43.0557C21.0501 44.3672 20.5316 45.6574 18.9055 47.0371L18.8967 47.0449C17.8336 47.9423 16.2065 48.4561 14.3 48.5488C12.1163 48.4033 10.5394 47.4092 9.49829 46.4355C9.07823 46.0427 8.74765 45.6533 8.50024 45.3271C9.47167 45.7055 11.1685 46.1357 13.3225 45.4551L13.7629 45.3027C14.548 45.0059 15.4113 44.4252 16.0549 43.832L16.3167 43.5781C18.3461 41.491 18.5363 39.1463 18.2747 37.4082Z" fill="white" stroke="white" stroke-width="0.572727"/>
</mask>
<g mask="url(#mask12_2411_4330)">
<mask id="mask13_2411_4330" style="mask-type:luminance" maskUnits="userSpaceOnUse" x="6" y="34" width="17" height="16">
<path d="M21.7856 34.4424V49.3672H7.15869V34.4424H21.7856Z" fill="white" stroke="white" stroke-width="0.572727"/>
</mask>
<g mask="url(#mask13_2411_4330)">
<mask id="mask14_2411_4330" style="mask-type:luminance" maskUnits="userSpaceOnUse" x="6" y="34" width="17" height="16">
<path d="M21.7856 34.4424V49.3672H7.15869V34.4424H21.7856Z" fill="white" stroke="white" stroke-width="0.572727"/>
</mask>
<g mask="url(#mask14_2411_4330)">
<rect x="6.81055" y="34.1045" width="15.316" height="15.5989" fill="white"/>
</g>
</g>
</g>
<path opacity="0.2" d="M19.3879 39.1934C20.2607 40.6051 20.8634 41.8619 20.9524 43.0576C21.0494 44.3609 20.5379 45.6428 18.9358 47.0127L18.9045 47.0391C17.8426 47.9394 16.2142 48.4551 14.3059 48.5488C12.1193 48.4047 10.5403 47.4109 9.49829 46.4365C9.45497 46.396 9.41279 46.3548 9.37134 46.3145C9.58372 46.4731 9.79337 46.6267 9.9895 46.7617L10.3967 47.0283C11.3954 47.6411 12.6422 48.3289 14.2893 48.4434L14.3069 48.4443L14.3245 48.4434C16.0756 48.3528 17.6015 47.8973 18.636 47.1182L18.8362 46.958C19.9864 45.9824 20.6295 45.0299 20.8108 43.9893C20.9687 43.0821 20.768 42.151 20.3225 41.1387L20.1165 40.6992C19.869 40.1991 19.6265 39.6969 19.3879 39.1934Z" fill="white" stroke="white" stroke-width="0.572727"/>
<path opacity="0.2" d="M17.8005 41.3984C17.5725 42.0427 17.2399 42.6515 16.8015 43.1943L16.5417 43.4941L16.5398 43.4961H16.5408L16.5339 43.5029L16.3933 43.6514C15.763 44.2997 14.9004 44.9076 14.1267 45.2637L13.8015 45.4004L13.7957 45.4023C13.7872 45.4057 13.7818 45.4084 13.7771 45.4102C13.7751 45.4109 13.7732 45.4108 13.7722 45.4111L13.7712 45.4121L13.3875 45.54C12.8238 45.7086 12.2437 45.7881 11.6667 45.7871C12.1811 45.7431 12.7351 45.6409 13.323 45.4551L13.7625 45.3027H13.7634C14.6605 44.9635 15.6603 44.2539 16.3171 43.5781L16.3162 43.5771C17.0044 42.8693 17.4808 42.1319 17.8005 41.3984Z" fill="white" stroke="white" stroke-width="0.572727"/>
<path d="M40.7755 36.6111V33.9395H31.1539C29.9103 33.9395 28.9023 34.9454 28.9023 36.1865V51.2367H31.9426V43.7688H40.5939V41.0971H31.9426V36.6127H40.7755V36.6111Z" fill="white"/>
<path d="M55.432 33.9395V44.3126C55.432 47.061 53.8987 48.8492 51.0139 48.8492C48.1291 48.8492 46.5713 47.0593 46.5713 44.3126V33.9395H43.5065V44.4171C43.5065 48.6679 45.974 51.5469 51.0155 51.5469C56.057 51.5469 58.4984 48.6957 58.4984 44.3909V33.9411H55.4336L55.432 33.9395Z" fill="white"/>
<path d="M61.0691 33.9395V36.6111H74.608V33.9395H61.0691ZM66.3184 51.235H69.3587V38.3111H66.3184V51.235Z" fill="white"/>
<path d="M86.3503 44.4416C88.4301 44.1052 90.4558 42.446 90.4558 39.3595C90.4558 36.2731 88.2222 33.9395 84.7909 33.9395H79.4303C78.1867 33.9395 77.1787 34.9454 77.1787 36.1865V51.2367H80.219V44.7796H83.2315L87.0768 51.2367H90.5851L86.3487 44.4416H86.3503ZM80.219 42.1079V36.6111H84.3753C86.0901 36.6111 87.337 37.7004 87.337 39.3595C87.337 41.0187 86.0901 42.1096 84.3753 42.1096H80.219V42.1079Z" fill="white"/>
<path d="M102.278 33.9395H98.4852L91.6765 51.2367H95.0032L100.38 36.5082L103.627 45.2467H99.1856L98.3298 47.9167H104.486L105.757 51.2367H109.082L102.277 33.9395H102.278Z" fill="white"/>
<path d="M122.961 33.9395V46.2069L114.102 33.9395H110.984V51.2367H114.024V38.6328L123.064 51.2367H126.002V33.9395H122.961Z" fill="white"/>
</g>
<defs>
<clipPath id="clip0_2411_4330">
<rect width="126" height="52" fill="white"/>
</clipPath>
</defs>
</svg>
